# AssetId: 3DApple001
# Name: 3D Apple 001
# Author: ambientCG
# Tags: 3d,apple,fruit,red
mtllib 3DApple001_LQ-2K-JPG.mtl
usemtl 3DApple001_LQ-2K-JPG
o 3DApple001_LQ-2K-JPG
v -0.029031 0.006956 0.004921
v -0.028238 0.008953 -0.010733
v -0.020626 0.004836 -0.007524
v -0.037982 0.017750 0.016075
v -0.039275 0.016914 0.004878
v -0.026482 0.007831 0.019329
v -0.029101 0.015863 0.027746
v -0.018875 0.003153 0.015283
v -0.044209 0.025489 -0.005321
v -0.048347 0.031792 0.009336
v -0.036744 0.017763 -0.011642
v -0.003830 0.005644 0.008732
v 0.004291 0.006472 0.008019
v 0.006892 0.003383 0.015065
v -0.005231 0.003020 0.020110
v -0.012451 0.002249 0.009570
v -0.018705 0.002737 0.003080
v -0.011593 0.004902 0.000380
v 0.002381 0.006510 0.028167
v 0.021172 0.009761 0.025099
v 0.010419 0.016464 0.036852
v -0.002832 0.014106 0.038194
v -0.013377 0.007432 0.028816
v -0.018681 0.008333 -0.021373
v -0.008718 0.011885 -0.031086
v -0.003703 0.006781 -0.024519
v -0.021277 0.017373 -0.031085
v -0.012974 0.005226 -0.016799
v -0.027811 0.014190 -0.022108
v -0.012867 0.005462 -0.008019
v 0.000448 0.020080 -0.039140
v 0.006263 0.012366 -0.032878
v 0.009887 0.005555 -0.023457
v 0.002478 0.005056 -0.017668
v -0.006017 0.006543 -0.014722
v 0.001313 0.010182 -0.002241
v 0.004207 0.009655 0.001903
v 0.000708 0.009615 0.003368
v -0.002720 0.010974 0.001447
v -0.001529 0.010004 -0.002102
v 0.010783 0.004234 0.003598
v -0.005609 0.010378 -0.003045
v 0.005961 0.006030 -0.009584
v 0.014581 0.002672 -0.011278
v 0.013059 0.003547 -0.003447
v 0.005294 0.009235 -0.003411
v -0.000823 0.010309 -0.007532
v -0.003127 0.011562 -0.003315
v -0.054772 0.052548 -0.004196
v -0.053774 0.068263 -0.009314
v -0.052277 0.057221 -0.018339
v -0.051485 0.045504 -0.014724
v -0.050746 0.038139 -0.004731
v -0.054398 0.047539 0.010374
v -0.044751 0.033637 -0.018228
v -0.047415 0.062717 -0.027125
v -0.038890 0.052906 -0.037339
v -0.046863 0.047165 -0.025552
v -0.038257 0.040188 -0.033474
v -0.017802 0.046406 -0.049166
v -0.025256 0.033367 -0.039980
v -0.030377 0.046251 -0.042972
v -0.032985 0.026367 -0.028783
v -0.010976 0.023606 -0.039833
v 0.013924 0.045293 -0.051079
v 0.003835 0.033832 -0.047390
v -0.003363 0.045186 -0.052315
v -0.010762 0.035904 -0.047274
v -0.029786 0.073725 -0.041897
v -0.022521 0.084108 -0.038985
v -0.018143 0.077968 -0.045986
v -0.037414 0.064687 -0.039284
v -0.026268 0.059429 -0.046925
v -0.030051 0.093344 -0.017238
v -0.027616 0.089141 -0.028944
v -0.039396 0.086319 -0.022362
v -0.034380 0.082160 -0.033206
v -0.041582 0.074059 -0.031524
v -0.044352 0.088049 -0.009666
v -0.047882 0.077532 -0.019552
v -0.007795 0.082565 -0.046256
v 0.003136 0.077419 -0.050706
v -0.012692 0.069811 -0.050890
v -0.000286 0.065863 -0.054300
v 0.012022 0.068132 -0.052769
v 0.005035 0.054717 -0.054227
v -0.009689 0.056872 -0.053301
v -0.000683 0.095594 -0.023921
v 0.006496 0.096925 -0.027509
v -0.014290 0.093826 -0.023166
v -0.005406 0.090604 -0.037481
v 0.005972 0.087684 -0.043967
v -0.002413 0.093095 -0.016298
v 0.034417 0.011146 -0.011838
v 0.023648 0.005119 -0.014539
v 0.028211 0.016398 -0.027266
v 0.017079 0.011606 -0.029682
v 0.038892 0.023991 -0.024045
v 0.034549 0.035174 -0.036757
v 0.017860 0.025584 -0.040335
v 0.040996 0.015426 0.000085
v 0.043688 0.020780 0.009217
v 0.030639 0.006916 0.006214
v 0.034352 0.017947 0.022216
v 0.019064 0.001941 0.002309
v 0.017276 0.004067 0.016871
v 0.023955 0.019172 0.033377
v 0.033411 0.032648 0.036725
v 0.046614 0.035265 -0.023503
v 0.051412 0.034175 -0.005558
v 0.044113 0.022878 -0.011811
v 0.056320 0.045785 0.001449
v 0.056701 0.049738 -0.008295
v 0.053121 0.049617 -0.020356
v 0.044372 0.046921 -0.033466
v 0.050986 0.041457 0.020026
v 0.045321 0.028404 0.018298
v 0.052659 0.038109 0.010133
v 0.042815 0.039324 0.030508
v 0.056947 0.063396 -0.010269
v 0.057783 0.060258 0.001636
v 0.055764 0.054172 0.013995
v 0.020974 0.037463 -0.046231
v 0.030280 0.049577 -0.045299
v 0.025833 0.074101 -0.046112
v 0.031011 0.063284 -0.045947
v 0.019209 0.057786 -0.051646
v 0.041183 0.059852 -0.038781
v 0.015939 0.083590 -0.045541
v 0.025694 0.086761 -0.039315
v 0.035753 0.090642 -0.027200
v 0.016932 0.094391 -0.033263
v 0.030919 0.098545 -0.015940
v 0.020267 0.100450 -0.015068
v 0.009573 0.098302 -0.016399
v 0.054052 0.067456 -0.020324
v 0.049523 0.061624 -0.029521
v 0.041068 0.070522 -0.037028
v 0.046906 0.077316 -0.027180
v 0.043831 0.092090 -0.010597
v 0.046476 0.086427 -0.019372
v 0.036837 0.081461 -0.035481
v 0.053062 0.078984 -0.011573
v 0.055139 0.075348 0.002387
v -0.014489 0.019571 0.040898
v -0.020781 0.034659 0.048773
v -0.034024 0.031323 0.037816
v -0.042834 0.031690 0.028398
v -0.050304 0.039521 0.021098
v -0.046540 0.044778 0.033750
v -0.053234 0.057518 0.025845
v -0.036028 0.044227 0.043726
v -0.023532 0.048204 0.053014
v -0.033540 0.055408 0.048216
v -0.045093 0.056130 0.039065
v -0.033550 0.075298 0.045240
v -0.039046 0.064533 0.044567
v -0.023310 0.061323 0.054190
v -0.047312 0.068607 0.036104
v -0.053608 0.073619 0.020062
v -0.054131 0.075491 0.006923
v -0.056028 0.061825 0.010401
v -0.050953 0.074421 0.028233
v -0.048971 0.085686 0.003578
v -0.049625 0.084936 0.014431
v -0.039669 0.094070 0.010854
v -0.044270 0.087581 0.025470
v -0.050401 0.081118 -0.007411
v -0.032471 0.089165 0.036855
v -0.044362 0.080685 0.034365
v -0.017214 0.083466 0.049845
v -0.018503 0.098479 0.031879
v -0.000477 0.097702 0.037685
v -0.005015 0.100447 0.028450
v -0.015732 0.100995 0.020998
v -0.030045 0.097700 0.024675
v -0.014114 0.093078 0.042504
v 0.016656 0.027257 0.042852
v 0.000052 0.030786 0.049265
v -0.012367 0.029801 0.049638
v 0.004888 0.045025 0.055124
v -0.012521 0.046127 0.056120
v 0.022615 0.036658 0.045823
v 0.034104 0.049842 0.044159
v 0.024863 0.059274 0.051433
v 0.022436 0.048283 0.050916
v 0.011103 0.056078 0.056057
v 0.004420 0.069685 0.056852
v -0.005350 0.079440 0.055102
v -0.013420 0.067616 0.056820
v -0.003086 0.056247 0.058562
v -0.002126 0.093730 0.045105
v -0.003167 0.088125 0.050057
v 0.010712 0.091681 0.044628
v 0.009455 0.081874 0.052091
v 0.021555 0.073298 0.051184
v 0.021664 0.083499 0.047010
v 0.015623 0.065652 0.055097
v 0.008082 0.095716 -0.006605
v 0.017224 0.099995 -0.004390
v 0.000983 0.087207 -0.006790
v 0.007496 0.091448 0.001138
v -0.007421 0.098403 -0.005913
v -0.004182 0.092761 -0.003982
v -0.003966 0.088606 -0.003710
v -0.001587 0.099154 0.017954
v 0.007996 0.099607 0.028523
v 0.011853 0.097973 0.015562
v -0.000600 0.093008 0.008934
v 0.006024 0.090630 0.006410
v -0.001243 0.082159 0.001873
v -0.006999 0.089822 0.002451
v -0.002927 0.084743 -0.001488
v 0.001218 0.082047 -0.000675
v -0.011884 0.092964 -0.014312
v -0.005599 0.087731 -0.008856
v -0.002040 0.081915 -0.003629
v -0.012265 0.092124 -0.004916
v -0.004765 0.083295 -0.002072
v -0.037142 0.093571 -0.007777
v -0.021542 0.095453 -0.011353
v -0.021451 0.097177 -0.000194
v -0.013654 0.097704 0.007946
v -0.029952 0.096995 -0.000206
v -0.025599 0.099832 0.013475
v 0.051389 0.052799 0.024834
v 0.043696 0.055974 0.035718
v 0.055154 0.069152 0.013407
v 0.051017 0.065743 0.025203
v 0.036269 0.065411 0.043009
v 0.048336 0.081755 0.019237
v 0.044804 0.074606 0.031805
v 0.039507 0.083526 0.031942
v 0.032354 0.077759 0.042680
v 0.026470 0.088703 0.039223
v 0.037455 0.091299 0.024242
v 0.042238 0.093012 0.005224
v 0.050434 0.085112 0.002129
v 0.037677 0.097350 -0.006051
v 0.029706 0.099726 -0.001152
v 0.031385 0.097199 0.016726
v 0.024314 0.099456 0.009701
v 0.014561 0.097400 0.004578
v 0.020427 0.098534 0.023411
v 0.018321 0.096098 0.033926
v -0.014356 0.112879 -0.011188
v -0.013410 0.114154 -0.007957
v -0.011272 0.108321 -0.008943
v -0.009503 0.108523 -0.007202
v -0.015305 0.111959 -0.010095
v -0.008125 0.101068 -0.004724
v -0.012471 0.108119 -0.007370
vt 0.529131 0.389103
vt 0.594946 0.419343
vt 0.556841 0.432731
vt 0.132305 0.348300
vt 0.210937 0.379540
vt 0.162742 0.393610
vt 0.624177 0.125835
vt 0.584697 0.112491
vt 0.602379 0.060622
vt 0.194394 0.325151
vt 0.454929 0.410170
vt 0.454755 0.435192
vt 0.137162 0.443270
vt 0.212114 0.450122
vt 0.088994 0.425922
vt 0.452509 0.480776
vt 0.441017 0.514068
vt 0.405322 0.529280
vt 0.403503 0.487321
vt 0.465597 0.453467
vt 0.511114 0.429134
vt 0.506671 0.452596
vt 0.589526 0.258010
vt 0.559029 0.339982
vt 0.536711 0.279671
vt 0.555071 0.227338
vt 0.380750 0.461976
vt 0.359398 0.519093
vt 0.609814 0.461558
vt 0.622297 0.509258
vt 0.586599 0.510813
vt 0.660085 0.480367
vt 0.578787 0.470047
vt 0.643136 0.442922
vt 0.546809 0.457612
vt 0.641819 0.561119
vt 0.600786 0.559329
vt 0.556906 0.551855
vt 0.550518 0.520246
vt 0.557329 0.488394
vt 0.491286 0.499595
vt 0.470154 0.508287
vt 0.468482 0.496916
vt 0.483161 0.485948
vt 0.495846 0.490167
vt 0.450379 0.539308
vt 0.508587 0.475518
vt 0.512837 0.522915
vt 0.503400 0.557577
vt 0.475886 0.548566
vt 0.488839 0.512558
vt 0.515354 0.494841
vt 0.504365 0.483756
vt 0.190093 0.541079
vt 0.189342 0.603977
vt 0.144980 0.577441
vt 0.141922 0.530405
vt 0.165705 0.489449
vt 0.237432 0.509907
vt 0.104326 0.493743
vt 0.118092 0.608495
vt 0.060954 0.596887
vt 0.101971 0.552447
vt 0.053998 0.546978
vt 0.752826 0.585093
vt 0.726923 0.515779
vt 0.771920 0.544637
vt 0.018684 0.592677
vt 0.000027 0.543717
vt 0.033674 0.493774
vt 0.672965 0.535434
vt 0.706050 0.459384
vt 0.689215 0.669464
vt 0.681209 0.610371
vt 0.723922 0.621056
vt 0.711569 0.573547
vt 0.066907 0.687154
vt 0.082046 0.733606
vt 0.043716 0.726772
vt 0.071136 0.641941
vt 0.021638 0.650929
vt 0.799111 0.600960
vt 0.174052 0.739561
vt 0.128602 0.735168
vt 0.155579 0.696513
vt 0.112281 0.698922
vt 0.113380 0.658433
vt 0.201624 0.685704
vt 0.161208 0.651185
vt 0.810806 0.739469
vt 0.777784 0.745219
vt 0.797165 0.675676
vt 0.761550 0.693744
vt 0.740780 0.733441
vt 0.729328 0.671701
vt 0.762692 0.642683
vt 0.122519 0.828901
vt 0.099157 0.850027
vt 0.142047 0.789047
vt 0.033593 0.766833
vt 0.072844 0.796651
vt 0.030545 0.818627
vt 0.155155 0.834312
vt 0.490048 0.634890
vt 0.505967 0.591775
vt 0.553873 0.630504
vt 0.572462 0.588707
vt 0.540403 0.679053
vt 0.601350 0.697336
vt 0.623852 0.628707
vt 0.443798 0.664582
vt 0.411669 0.688308
vt 0.425146 0.616215
vt 0.360572 0.657625
vt 0.448365 0.570198
vt 0.353544 0.597371
vt 0.392223 0.571234
vt 0.517639 0.334251
vt 0.518410 0.390553
vt 0.453534 0.354813
vt 0.543543 0.728586
vt 0.474467 0.742770
vt 0.490728 0.691323
vt 0.459416 0.787451
vt 0.499691 0.796548
vt 0.544830 0.784823
vt 0.593177 0.752123
vt 0.384689 0.771554
vt 0.383123 0.716605
vt 0.418520 0.761390
vt 0.335936 0.753517
vt 0.526678 0.840567
vt 0.476558 0.841112
vt 0.420345 0.822332
vt 0.650027 0.666089
vt 0.654512 0.724568
vt 0.713819 0.792437
vt 0.680461 0.766065
vt 0.703285 0.717133
vt 0.635965 0.782643
vt 0.754473 0.802236
vt 0.728242 0.842470
vt 0.787291 0.800042
vt 0.682215 0.895031
vt 0.762404 0.870915
vt 0.684135 0.946552
vt 0.090269 0.939956
vt 0.059375 0.870759
vt 0.112700 0.907765
vt 0.128949 0.871527
vt 0.572743 0.842272
vt 0.597291 0.810138
vt 0.651419 0.820065
vt 0.626169 0.861590
vt 0.613250 0.936801
vt 0.621484 0.899461
vt 0.679373 0.848766
vt 0.564495 0.891473
vt 0.503579 0.892857
vt 0.545534 0.177203
vt 0.486812 0.141064
vt 0.516402 0.083619
vt 0.525873 0.037776
vt 0.269685 0.471717
vt 0.327298 0.484885
vt 0.303993 0.536192
vt 0.469554 0.021020
vt 0.463514 0.071196
vt 0.291061 0.432154
vt 0.435950 0.122944
vt 0.417159 0.077605
vt 0.421693 0.024618
vt 0.340979 0.062062
vt 0.385312 0.048539
vt 0.388536 0.116308
vt 0.371995 0.007283
vt 0.357396 0.528993
vt 0.297012 0.600387
vt 0.253070 0.614764
vt 0.253382 0.561919
vt 0.352567 0.579749
vt 0.324618 0.600405
vt 0.248255 0.658498
vt 0.285061 0.648630
vt 0.279416 0.700508
vt 0.327210 0.662482
vt 0.206303 0.650500
vt 0.281971 0.052473
vt 0.278588 0.000108
vt 0.319957 0.011130
vt 0.303570 0.121098
vt 0.352266 0.628751
vt 0.223818 0.094458
vt 0.220839 0.168067
vt 0.194624 0.145471
vt 0.182807 0.096343
vt 0.224475 0.046610
vt 0.258447 0.121277
vt 0.485815 0.292110
vt 0.484727 0.221185
vt 0.497748 0.176184
vt 0.429565 0.225713
vt 0.437338 0.162682
vt 0.445932 0.305639
vt 0.386961 0.335120
vt 0.363502 0.288920
vt 0.404790 0.290704
vt 0.386048 0.240550
vt 0.341635 0.206661
vt 0.314079 0.166154
vt 0.361708 0.146056
vt 0.395159 0.189148
vt 0.251831 0.167360
vt 0.277853 0.168133
vt 0.248760 0.215564
vt 0.293057 0.217484
vt 0.313632 0.266274
vt 0.275606 0.260798
vt 0.347591 0.249228
vt 0.158881 0.885321
vt 0.141874 0.914701
vt 0.186024 0.858801
vt 0.179726 0.900771
vt 0.620159 0.169550
vt 0.617007 0.195534
vt 0.607604 0.208641
vt 0.156352 0.155447
vt 0.189174 0.199760
vt 0.145587 0.215849
vt 0.310200 0.876290
vt 0.272337 0.842370
vt 0.305728 0.834782
vt 0.269839 0.867067
vt 0.235383 0.855623
vt 0.239702 0.825046
vt 0.213667 0.867935
vt 0.228455 0.869301
vt 0.174004 0.803658
vt 0.193122 0.833337
vt 0.208452 0.858752
vt 0.599238 0.235337
vt 0.211697 0.807648
vt 0.220206 0.848630
vt 0.212051 0.717173
vt 0.192723 0.771465
vt 0.236832 0.770892
vt 0.266827 0.793396
vt 0.240828 0.744240
vt 0.294077 0.754408
vt 0.313157 0.789537
vt 0.353926 0.418559
vt 0.354578 0.371671
vt 0.419695 0.393123
vt 0.446549 0.873924
vt 0.391217 0.864887
vt 0.374837 0.816308
vt 0.328378 0.329272
vt 0.230058 0.381747
vt 0.279835 0.363361
vt 0.301693 0.404278
vt 0.247467 0.334719
vt 0.285728 0.305781
vt 0.243251 0.276563
vt 0.474658 0.972873
vt 0.447751 0.924985
vt 0.546615 0.957647
vt 0.531186 0.923045
vt 0.622865 0.958965
vt 0.628155 0.984508
vt 0.127699 0.960449
vt 0.530044 0.993308
vt 0.147186 0.999935
vt 0.153204 0.966289
vt 0.164428 0.929448
vt 0.201939 0.328233
vt 0.132859 0.273368
vt 0.175909 0.252660
vt 0.163048 0.302563
vt 0.209736 0.241030
vt 0.644225 0.399535
vt 0.599750 0.189848
vt 0.004017 0.715391
vt 0.329715 0.725500
vt 0.181137 0.051265
vt 0.207215 0.877397
vt 0.265996 0.888543
vt 0.295443 0.897324
vt 0.220091 0.890522
vt 0.237377 0.876636
vt 0.597839 0.223288
vt 0.112716 0.236168
vt 0.595047 0.335319
vt 0.578731 0.342937
vt 0.566311 0.328626
vt 0.559141 0.343413
vt 0.592186 0.347282
vt 0.542385 0.363436
vt 0.567323 0.359862
vt 0.632815 0.105737
vt 0.637286 0.105182
vt 0.634460 0.127925
vt 0.644199 0.133298
vt 0.636662 0.163664
vt 0.626581 0.126064
vt 0.614879 0.156747
vt 0.600928 0.191362
vn -0.5654 -0.8248 -0.0017
vn -0.5548 -0.7974 -0.2376
vn -0.2215 -0.9597 -0.1729
vn -0.7401 -0.6230 0.2533
vn -0.7686 -0.6397 0.0046
vn -0.5193 -0.7843 0.3395
vn -0.5450 -0.6389 0.5429
vn -0.2587 -0.9462 0.1946
vn -0.8379 -0.5216 -0.1604
vn -0.8839 -0.4621 0.0720
vn -0.7332 -0.6196 -0.2803
vn 0.2207 -0.9105 -0.3497
vn -0.2220 -0.8860 -0.4070
vn -0.0463 -0.9989 0.0094
vn 0.0226 -0.9847 0.1727
vn 0.1233 -0.9888 -0.0844
vn -0.1244 -0.9868 -0.1032
vn 0.3859 -0.8958 -0.2205
vn 0.1083 -0.8600 0.4986
vn 0.3903 -0.7616 0.5173
vn 0.2348 -0.6499 0.7228
vn 0.0273 -0.6782 0.7343
vn -0.2188 -0.8140 0.5381
vn -0.3302 -0.8361 -0.4381
vn -0.1791 -0.7326 -0.6567
vn -0.0893 -0.9217 -0.3774
vn -0.4089 -0.6177 -0.6718
vn -0.0474 -0.9839 -0.1721
vn -0.5749 -0.6674 -0.4734
vn 0.2682 -0.9634 0.0018
vn -0.0183 -0.5741 -0.8186
vn 0.0542 -0.7041 -0.7080
vn 0.0669 -0.9067 -0.4165
vn -0.1671 -0.9853 0.0361
vn 0.1274 -0.9778 0.1663
vn -0.0805 -0.9966 -0.0199
vn -0.3459 -0.9151 -0.2072
vn -0.0807 -0.9223 -0.3779
vn 0.1304 -0.9528 -0.2742
vn -0.3533 -0.9341 -0.0513
vn -0.4242 -0.8920 -0.1562
vn 0.4933 -0.8697 -0.0137
vn -0.4152 -0.8687 0.2702
vn -0.0447 -0.9949 -0.0907
vn -0.3982 -0.9164 0.0410
vn -0.4513 -0.8818 0.1368
vn -0.0925 -0.9557 0.2795
vn -0.0354 -0.9944 0.0995
vn -0.9861 -0.1220 -0.1130
vn -0.9645 0.1525 -0.2154
vn -0.9342 -0.0135 -0.3565
vn -0.9184 -0.2756 -0.2839
vn -0.9188 -0.3749 -0.1233
vn -0.9709 -0.2304 0.0645
vn -0.8054 -0.4536 -0.3816
vn -0.8467 0.0774 -0.5263
vn -0.7034 -0.1171 -0.7011
vn -0.8256 -0.2353 -0.5128
vn -0.6898 -0.3624 -0.6268
vn -0.3435 -0.2421 -0.9074
vn -0.4549 -0.4487 -0.7693
vn -0.5367 -0.2400 -0.8089
vn -0.6426 -0.5114 -0.5706
vn -0.2192 -0.5436 -0.8102
vn 0.2122 -0.2723 -0.9385
vn 0.0395 -0.4604 -0.8868
vn -0.0801 -0.2848 -0.9552
vn -0.2123 -0.4361 -0.8745
vn -0.4980 0.3451 -0.7955
vn -0.3480 0.6736 -0.6521
vn -0.3409 0.4477 -0.8266
vn -0.6552 0.1167 -0.7463
vn -0.4629 0.0319 -0.8858
vn -0.2661 0.9157 -0.3012
vn -0.3190 0.8324 -0.4532
vn -0.5855 0.6879 -0.4289
vn -0.5413 0.5787 -0.6100
vn -0.7267 0.3391 -0.5975
vn -0.6657 0.7066 -0.2399
vn -0.8287 0.3842 -0.4069
vn -0.1924 0.5928 -0.7820
vn -0.0010 0.4205 -0.9073
vn -0.2785 0.2495 -0.9274
vn -0.0532 0.1556 -0.9864
vn 0.2106 0.2005 -0.9568
vn 0.0684 -0.0987 -0.9928
vn -0.2289 -0.0365 -0.9728
vn -0.1893 0.9715 0.1427
vn -0.1079 0.9541 -0.2794
vn -0.0900 0.9835 -0.1572
vn -0.1741 0.8477 -0.5012
vn 0.0062 0.7198 -0.6941
vn -0.2272 0.8994 0.3734
vn 0.6187 -0.7403 -0.2631
vn 0.3779 -0.8782 -0.2932
vn 0.4998 -0.6313 -0.5930
vn 0.2928 -0.7109 -0.6394
vn 0.6696 -0.5415 -0.5084
vn 0.5647 -0.4140 -0.7139
vn 0.2835 -0.5332 -0.7970
vn 0.7584 -0.6518 0.0014
vn 0.7918 -0.5758 0.2037
vn 0.5337 -0.8322 0.1500
vn 0.6219 -0.6271 0.4691
vn 0.1128 -0.9935 0.0141
vn 0.2354 -0.9249 0.2984
vn 0.4396 -0.6006 0.6678
vn 0.5914 -0.4457 0.6720
vn 0.8035 -0.3966 -0.4440
vn 0.9012 -0.4184 -0.1131
vn 0.8099 -0.5335 -0.2438
vn 0.9675 -0.2493 0.0423
vn 0.9679 -0.1884 -0.1661
vn 0.9054 -0.1976 -0.3757
vn 0.7252 -0.2376 -0.6462
vn 0.8633 -0.3084 0.3996
vn 0.7737 -0.4865 0.4058
vn 0.9139 -0.3697 0.1674
vn 0.7266 -0.3496 0.5915
vn 0.9838 0.0785 -0.1609
vn 0.9983 0.0343 0.0468
vn 0.9633 -0.0824 0.2556
vn 0.3396 -0.3886 -0.8566
vn 0.5042 -0.1916 -0.8421
vn 0.4174 0.3049 -0.8560
vn 0.4996 0.0881 -0.8618
vn 0.3279 -0.0238 -0.9444
vn 0.6623 -0.0070 -0.7492
vn 0.2300 0.5436 -0.8072
vn 0.3654 0.6263 -0.6886
vn 0.4952 0.7190 -0.4877
vn 0.1416 0.8582 -0.4934
vn 0.3204 0.9113 -0.2584
vn 0.0094 0.9903 -0.1387
vn -0.2924 0.9550 0.0500
vn 0.9166 0.1542 -0.3689
vn 0.8238 0.0323 -0.5660
vn 0.6568 0.2381 -0.7155
vn 0.7626 0.3717 -0.5294
vn 0.6687 0.7264 -0.1589
vn 0.7270 0.5830 -0.3628
vn 0.5798 0.4668 -0.6678
vn 0.8989 0.3991 -0.1807
vn 0.9461 0.3175 0.0635
vn -0.2639 -0.6230 0.7363
vn -0.4064 -0.4359 0.8030
vn -0.5617 -0.4992 0.6597
vn -0.7373 -0.5036 0.4503
vn -0.8938 -0.3681 0.2561
vn -0.7850 -0.2970 0.5437
vn -0.9377 -0.0761 0.3390
vn -0.5885 -0.3088 0.7472
vn -0.4056 -0.2106 0.8895
vn -0.5531 -0.0915 0.8281
vn -0.7453 -0.0976 0.6595
vn -0.4995 0.3358 0.7986
vn -0.6020 0.1098 0.7909
vn -0.3873 0.0677 0.9195
vn -0.7736 0.1355 0.6191
vn -0.9468 0.2517 0.2006
vn -0.9592 0.2820 -0.0207
vn -0.9989 0.0128 0.0458
vn -0.8800 0.2819 0.3822
vn -0.7830 0.6191 -0.0596
vn -0.8105 0.5735 0.1191
vn -0.5320 0.8465 0.0176
vn -0.6796 0.6612 0.3176
vn -0.8687 0.4504 -0.2061
vn -0.4563 0.6574 0.5997
vn -0.6722 0.4526 0.5859
vn -0.3283 0.4845 0.8109
vn -0.2098 0.9022 0.3768
vn 0.0327 0.9152 0.4016
vn 0.0177 0.9921 0.1244
vn -0.0366 0.9993 -0.0112
vn -0.3843 0.8868 0.2567
vn -0.2371 0.7543 0.6122
vn 0.3000 -0.5144 0.8034
vn 0.1212 -0.4902 0.8631
vn -0.1349 -0.5180 0.8447
vn 0.1636 -0.3229 0.9322
vn -0.1536 -0.2481 0.9565
vn 0.3929 -0.4177 0.8192
vn 0.6154 -0.2012 0.7621
vn 0.4745 -0.0146 0.8801
vn 0.3964 -0.2585 0.8809
vn 0.2388 -0.1010 0.9658
vn 0.1279 0.1746 0.9763
vn -0.0695 0.3661 0.9280
vn -0.2269 0.1591 0.9608
vn 0.0047 -0.0642 0.9979
vn -0.0157 0.7833 0.6214
vn -0.0333 0.5944 0.8035
vn 0.2223 0.7261 0.6506
vn 0.2107 0.4302 0.8778
vn 0.4170 0.2462 0.8750
vn 0.4030 0.4927 0.7713
vn 0.2933 0.1060 0.9501
vn -0.5691 0.7780 0.2662
vn -0.2240 0.9708 0.0859
vn -0.5289 0.6266 0.5725
vn -0.7474 0.6514 0.1304
vn -0.5968 -0.4431 -0.6689
vn 0.9492 0.2966 -0.1051
vn -0.7036 -0.2481 -0.6659
vn 0.1014 0.9523 -0.2877
vn 0.1015 0.9873 0.1225
vn -0.1195 0.9724 -0.2002
vn 0.1666 0.7216 -0.6720
vn -0.4413 0.7654 -0.4684
vn 0.1719 0.9076 -0.3831
vn 0.5967 0.6160 -0.5143
vn -0.6507 0.4664 0.5992
vn -0.3526 0.9299 0.1047
vn 0.2337 0.9576 0.1687
vn 0.2804 0.8129 0.5105
vn 0.0389 0.9982 0.0446
vn 0.5412 0.8369 -0.0821
vn 0.4882 0.8649 -0.1171
vn -0.4329 0.8796 -0.1972
vn 0.0883 0.9883 -0.1244
vn 0.1472 0.9672 -0.2069
vn 0.2417 0.9128 -0.3292
vn -0.2047 0.9685 -0.1417
vn -0.1664 0.9837 -0.0686
vn 0.8636 -0.1179 0.4902
vn 0.7555 -0.0680 0.6517
vn 0.9447 0.2068 0.2546
vn 0.8693 0.1294 0.4770
vn 0.6532 0.1014 0.7503
vn 0.8086 0.4918 0.3229
vn 0.7728 0.2714 0.5737
vn 0.6555 0.5244 0.5434
vn 0.5887 0.3482 0.7295
vn 0.4639 0.6640 0.5864
vn 0.5706 0.7376 0.3612
vn 0.6089 0.7812 0.1377
vn 0.8167 0.5718 0.0771
vn 0.4697 0.8824 -0.0275
vn 0.2120 0.9759 0.0517
vn 0.3695 0.9078 0.1985
vn 0.0259 0.9969 0.0741
vn -0.4460 0.8941 0.0422
vn 0.1455 0.9791 0.1422
vn 0.2803 0.8689 0.4079
vn -0.1127 0.4296 -0.8960
vn 0.0354 0.9031 0.4279
vn 0.1353 -0.2232 -0.9653
vn 0.8832 0.4574 0.1035
vn -0.9735 -0.1351 -0.1846
vn -0.2352 0.0027 0.9719
vn -0.8649 -0.4082 0.2922
s 1
f 1/1/1 2/2/2 3/3/3
f 1/4/1 4/5/4 5/6/5
f 6/7/6 7/8/7 4/9/4
f 1/4/1 6/10/6 4/5/4
f 6/11/6 1/1/1 8/12/8
f 9/13/9 5/6/5 10/14/10
f 5/6/5 4/5/4 10/14/10
f 9/13/9 11/15/11 5/6/5
f 12/16/12 13/17/13 14/18/14
f 12/16/12 14/18/14 15/19/15
f 15/19/15 16/20/16 12/16/12
f 17/21/17 18/22/18 16/20/16
f 15/19/15 8/12/8 16/20/16
f 16/20/16 8/12/8 17/21/17
f 19/23/19 20/24/20 21/25/21
f 22/26/22 19/23/19 21/25/21
f 23/27/23 15/19/15 19/28/19
f 24/29/24 25/30/25 26/31/26
f 25/30/25 24/29/24 27/32/27
f 24/29/24 26/31/26 28/33/28
f 29/34/29 27/32/27 24/29/24
f 3/3/3 28/33/28 30/35/30
f 24/29/24 2/2/2 29/34/29
f 28/33/28 3/3/3 24/29/24
f 31/36/31 32/37/32 25/30/25
f 26/31/26 32/37/32 33/38/33
f 33/38/33 34/39/34 26/31/26
f 26/31/26 34/39/34 35/40/35
f 36/41/36 37/42/37 38/43/38
f 37/42/37 13/17/13 38/43/38
f 38/43/38 39/44/39 40/45/40
f 41/46/41 13/17/13 37/42/37
f 18/22/18 30/35/30 42/47/42
f 43/48/43 34/39/34 44/49/44
f 45/50/45 46/51/46 43/48/43
f 46/51/46 47/52/47 43/48/43
f 48/53/48 47/52/47 40/45/40
f 45/50/45 41/46/41 46/51/46
f 43/48/43 47/52/47 34/39/34
f 47/52/47 35/40/35 34/39/34
f 49/54/49 50/55/50 51/56/51
f 51/56/51 52/57/52 49/54/49
f 49/54/49 52/57/52 53/58/53
f 54/59/54 49/54/49 53/58/53
f 53/58/53 52/57/52 55/60/55
f 53/58/53 10/14/10 54/59/54
f 56/61/56 57/62/57 58/63/58
f 58/63/58 57/62/57 59/64/59
f 58/63/58 59/64/59 55/60/55
f 60/65/60 61/66/61 62/67/62
f 62/68/62 61/69/61 59/64/59
f 59/64/59 61/69/61 63/70/63
f 27/32/27 61/66/61 64/71/64
f 61/66/61 27/32/27 63/72/63
f 65/73/65 66/74/66 67/75/67
f 67/75/67 68/76/68 60/65/60
f 66/74/66 68/76/68 67/75/67
f 64/71/64 66/74/66 31/36/31
f 66/74/66 64/71/64 68/76/68
f 68/76/68 64/71/64 61/66/61
f 69/77/69 70/78/70 71/79/71
f 72/80/72 69/77/69 73/81/73
f 73/82/73 60/65/60 62/67/62
f 73/81/73 57/62/57 72/80/72
f 57/62/57 73/81/73 62/68/62
f 72/80/72 57/62/57 56/61/56
f 74/83/74 75/84/75 76/85/76
f 75/84/75 70/78/70 77/86/77
f 75/84/75 77/86/77 76/85/76
f 76/85/76 77/86/77 78/87/78
f 79/88/79 76/85/76 80/89/80
f 77/86/77 69/77/69 78/87/78
f 78/87/78 80/89/80 76/85/76
f 78/87/78 56/61/56 80/89/80
f 80/89/80 56/61/56 50/55/50
f 50/55/50 56/61/56 51/56/51
f 81/90/81 82/91/82 83/92/83
f 83/92/83 82/91/82 84/93/84
f 84/93/84 85/94/85 86/95/86
f 83/92/83 84/93/84 87/96/87
f 86/95/86 87/96/87 84/93/84
f 86/95/86 67/75/67 87/96/87
f 73/82/73 83/92/83 87/96/87
f 87/96/87 67/75/67 60/65/60
f 60/65/60 73/82/73 87/96/87
f 88/97/88 89/98/89 90/99/90
f 81/100/81 91/101/91 92/102/92
f 90/99/90 89/98/89 91/101/91
f 93/103/93 88/97/88 90/99/90
f 90/99/90 91/101/91 75/84/75
f 70/78/70 91/101/91 81/100/81
f 91/101/91 70/78/70 75/84/75
f 70/78/70 81/100/81 71/79/71
f 94/104/94 95/105/95 96/106/96
f 96/106/96 95/105/95 97/107/97
f 95/105/95 44/49/44 33/38/33
f 98/108/98 96/106/96 99/109/99
f 100/110/100 99/109/99 96/106/96
f 101/111/101 102/112/102 103/113/103
f 103/113/103 102/112/102 104/114/104
f 94/104/94 101/111/101 103/113/103
f 95/105/95 103/113/103 105/115/105
f 103/113/103 20/116/20 106/117/106
f 105/115/105 103/113/103 106/117/106
f 106/117/106 14/18/14 105/115/105
f 107/118/107 104/119/104 108/120/108
f 20/24/20 104/119/104 107/118/107
f 109/121/109 110/122/110 111/123/111
f 111/123/111 98/108/98 109/121/109
f 111/123/111 110/122/110 101/111/101
f 101/111/101 110/122/110 102/112/102
f 112/124/112 110/122/110 113/125/113
f 114/126/114 113/125/113 110/122/110
f 110/122/110 109/121/109 114/126/114
f 99/109/99 115/127/115 109/121/109
f 99/109/99 109/121/109 98/108/98
f 116/128/116 117/129/117 118/130/118
f 117/129/117 102/112/102 118/130/118
f 116/128/116 119/131/119 117/129/117
f 120/132/120 121/133/121 113/125/113
f 121/133/121 112/124/112 113/125/113
f 112/124/112 121/133/121 122/134/122
f 122/134/122 118/130/118 112/124/112
f 123/135/123 124/136/124 99/109/99
f 123/135/123 99/109/99 100/110/100
f 65/73/65 123/135/123 66/74/66
f 125/137/125 126/138/126 127/139/127
f 85/94/85 125/137/125 127/139/127
f 124/136/124 126/138/126 128/140/128
f 126/138/126 124/136/124 127/139/127
f 85/94/85 127/139/127 86/95/86
f 124/136/124 65/73/65 127/139/127
f 127/139/127 65/73/65 86/95/86
f 129/141/129 130/142/130 125/137/125
f 129/141/129 82/91/82 92/143/92
f 129/141/129 125/137/125 85/94/85
f 85/94/85 82/91/82 129/141/129
f 85/94/85 84/93/84 82/91/82
f 131/144/131 132/145/132 133/146/133
f 133/147/133 132/148/132 134/149/134
f 132/145/132 131/144/131 130/142/130
f 89/98/89 134/149/134 132/148/132
f 89/98/89 135/150/135 134/149/134
f 132/145/132 130/142/130 129/141/129
f 92/143/92 132/145/132 129/141/129
f 89/98/89 132/148/132 91/101/91
f 132/148/132 92/102/92 91/101/91
f 136/151/136 120/132/120 114/126/114
f 136/151/136 114/126/114 137/152/137
f 114/126/114 115/127/115 137/152/137
f 115/127/115 114/126/114 109/121/109
f 137/152/137 138/153/138 139/154/139
f 128/140/128 126/138/126 138/153/138
f 138/153/138 137/152/137 128/140/128
f 140/155/140 141/156/141 131/144/131
f 131/144/131 141/156/141 139/154/139
f 142/157/142 131/144/131 139/154/139
f 139/154/139 138/153/138 142/157/142
f 120/132/120 143/158/143 144/159/144
f 136/151/136 143/158/143 120/132/120
f 120/132/120 144/159/144 121/133/121
f 145/160/145 146/161/146 147/162/147
f 148/163/148 7/8/7 147/162/147
f 7/8/7 145/160/145 147/162/147
f 149/164/149 150/165/150 151/166/151
f 149/164/149 54/59/54 10/14/10
f 150/167/150 148/163/148 147/162/147
f 152/168/152 150/167/150 147/162/147
f 149/164/149 148/169/148 150/165/150
f 148/169/148 149/164/149 4/5/4
f 153/170/153 154/171/154 152/168/152
f 152/168/152 154/171/154 155/172/155
f 156/173/156 157/174/157 158/175/158
f 157/174/157 159/176/159 155/172/155
f 155/177/155 151/166/151 150/165/150
f 160/178/160 161/179/161 162/180/162
f 159/181/159 163/182/163 151/166/151
f 163/182/163 160/178/160 151/166/151
f 160/178/160 162/180/162 151/166/151
f 49/54/49 54/59/54 162/180/162
f 54/59/54 151/166/151 162/180/162
f 164/183/164 165/184/165 166/185/166
f 167/186/167 166/185/166 165/184/165
f 164/183/164 168/187/168 161/179/161
f 165/184/165 160/178/160 167/186/167
f 164/183/164 161/179/161 165/184/165
f 167/186/167 160/178/160 163/182/163
f 160/178/160 165/184/165 161/179/161
f 161/179/161 50/55/50 162/180/162
f 169/188/169 167/189/167 170/190/170
f 156/173/156 171/191/171 169/188/169
f 156/173/156 169/188/169 170/190/170
f 170/192/170 167/186/167 163/182/163
f 156/173/156 170/190/170 159/176/159
f 172/193/172 173/194/173 174/195/174
f 175/196/175 176/197/176 172/193/172
f 173/194/173 172/193/172 177/198/177
f 177/198/177 172/193/172 169/188/169
f 169/188/169 172/193/172 176/197/176
f 169/188/169 176/197/176 167/189/167
f 177/198/177 169/188/169 171/191/171
f 21/25/21 178/199/178 179/200/179
f 21/25/21 179/200/179 22/26/22
f 22/26/22 179/200/179 145/160/145
f 179/200/179 180/201/180 145/160/145
f 179/200/179 181/202/181 182/203/182
f 179/200/179 182/203/182 180/201/180
f 153/170/153 146/161/146 182/203/182
f 146/161/146 180/201/180 182/203/182
f 107/118/107 108/120/108 183/204/183
f 178/199/178 107/118/107 183/204/183
f 21/25/21 107/118/107 178/199/178
f 184/205/184 185/206/185 186/207/186
f 186/207/186 183/204/183 184/205/184
f 185/206/185 187/208/187 186/207/186
f 186/207/186 187/208/187 181/202/181
f 183/204/183 186/207/186 181/202/181
f 181/202/181 179/200/179 183/204/183
f 188/209/188 189/210/189 190/211/190
f 188/209/188 190/211/190 191/212/191
f 187/208/187 191/212/191 181/202/181
f 189/210/189 171/191/171 190/211/190
f 158/175/158 154/171/154 153/170/153
f 182/203/182 158/175/158 153/170/153
f 192/213/192 193/214/193 194/215/194
f 193/214/193 195/216/195 194/215/194
f 193/214/193 192/213/192 177/198/177
f 171/191/171 193/214/193 177/198/177
f 193/214/193 189/210/189 195/216/195
f 195/216/195 189/210/189 188/209/188
f 196/217/196 197/218/197 195/216/195
f 196/217/196 195/216/195 188/209/188
f 188/209/188 198/219/198 196/217/196
f 185/206/185 196/217/196 198/219/198
f 188/209/188 187/208/187 198/219/198
f 199/220/199 200/221/200 135/150/135
f 199/220/199 93/103/93 201/222/201
f 202/223/202 199/220/199 201/222/201
f 203/224/203 204/225/204 205/226/205
f 206/227/206 207/228/207 208/229/208
f 208/230/208 209/231/209 206/232/206
f 208/230/208 210/233/210 209/231/209
f 211/234/211 212/235/212 209/231/209
f 213/236/213 211/234/211 214/237/214
f 211/234/211 210/233/210 214/237/214
f 215/238/215 216/239/216 93/103/93
f 201/222/201 216/239/216 217/240/217
f 205/226/205 204/225/204 217/241/217
f 218/242/218 219/243/219 216/239/216
f 217/240/217 216/239/216 219/243/219
f 74/83/74 76/85/76 220/244/220
f 166/185/166 220/244/220 79/88/79
f 79/88/79 220/244/220 76/85/76
f 166/185/166 79/88/79 164/183/164
f 164/183/164 79/88/79 168/187/168
f 79/88/79 80/89/80 168/187/168
f 221/245/221 215/238/215 90/99/90
f 215/238/215 221/245/221 218/242/218
f 218/242/218 222/246/222 223/247/223
f 222/246/222 218/242/218 221/245/221
f 224/248/224 222/246/222 221/245/221
f 166/185/166 225/249/225 224/248/224
f 173/194/173 207/228/207 174/195/174
f 174/195/174 206/227/206 175/196/175
f 175/250/175 206/232/206 223/247/223
f 209/231/209 223/247/223 206/232/206
f 212/235/212 223/247/223 209/231/209
f 175/250/175 223/247/223 225/249/225
f 226/251/226 227/252/227 119/253/119
f 184/205/184 119/253/119 227/252/227
f 119/253/119 184/205/184 108/120/108
f 122/134/122 121/133/121 228/254/228
f 228/254/228 229/255/229 122/134/122
f 122/134/122 229/255/229 226/256/226
f 184/205/184 227/252/227 230/257/230
f 231/258/231 232/259/232 229/260/229
f 232/259/232 233/261/233 234/262/234
f 234/262/234 233/261/233 235/263/235
f 229/260/229 232/259/232 230/257/230
f 197/218/197 234/262/234 235/263/235
f 234/262/234 196/217/196 230/257/230
f 236/264/236 231/265/231 237/266/237
f 237/266/237 231/265/231 238/267/238
f 231/265/231 144/159/144 238/267/238
f 231/265/231 228/254/228 144/159/144
f 140/155/140 133/146/133 239/268/239
f 240/269/240 239/268/239 133/146/133
f 140/155/140 239/268/239 237/266/237
f 240/270/240 133/147/133 134/149/134
f 239/268/239 240/269/240 237/266/237
f 241/271/241 237/266/237 240/269/240
f 241/272/241 240/270/240 242/273/242
f 240/270/240 134/149/134 200/221/200
f 240/270/240 200/221/200 242/273/242
f 242/273/242 200/221/200 243/274/243
f 199/220/199 243/274/243 200/221/200
f 233/261/233 231/258/231 236/275/236
f 232/259/232 231/258/231 233/261/233
f 236/275/236 235/263/235 233/261/233
f 242/276/242 244/277/244 241/278/241
f 245/279/245 241/278/241 244/277/244
f 242/276/242 208/229/208 244/277/244
f 207/228/207 245/279/245 244/277/244
f 245/279/245 194/215/194 235/263/235
f 148/163/148 4/9/4 7/8/7
f 1/1/1 3/3/3 17/21/17
f 8/12/8 1/1/1 17/21/17
f 9/13/9 55/60/55 11/15/11
f 9/13/9 10/14/10 53/58/53
f 1/1/1 11/280/11 2/2/2
f 1/4/1 5/6/5 11/15/11
f 106/117/106 19/28/19 14/18/14
f 19/28/19 15/19/15 14/18/14
f 16/20/16 18/22/18 12/16/12
f 8/12/8 15/19/15 23/27/23
f 23/281/23 19/23/19 22/26/22
f 23/281/23 7/8/7 6/7/6
f 23/27/23 6/11/6 8/12/8
f 29/34/29 11/280/11 63/72/63
f 2/2/2 11/280/11 29/34/29
f 2/2/2 24/29/24 3/3/3
f 97/107/97 33/38/33 32/37/32
f 31/36/31 25/30/25 64/71/64
f 32/37/32 26/31/26 25/30/25
f 35/40/35 28/33/28 26/31/26
f 30/35/30 28/33/28 35/40/35
f 48/53/48 39/44/39 42/47/42
f 40/45/40 39/44/39 48/53/48
f 38/43/38 40/45/40 36/41/36
f 38/43/38 12/16/12 39/44/39
f 12/16/12 38/43/38 13/17/13
f 13/17/13 41/46/41 14/18/14
f 18/22/18 42/47/42 12/16/12
f 39/44/39 12/16/12 42/47/42
f 42/47/42 30/35/30 35/40/35
f 17/21/17 30/35/30 18/22/18
f 3/3/3 30/35/30 17/21/17
f 34/39/34 33/38/33 44/49/44
f 36/41/36 47/52/47 46/51/46
f 46/51/46 37/42/37 36/41/36
f 44/49/44 45/50/45 43/48/43
f 46/51/46 41/46/41 37/42/37
f 47/52/47 36/41/36 40/45/40
f 42/47/42 47/52/47 48/53/48
f 35/40/35 47/52/47 42/47/42
f 51/56/51 58/63/58 52/57/52
f 52/57/52 58/63/58 55/60/55
f 58/63/58 51/56/51 56/61/56
f 57/62/57 62/68/62 59/64/59
f 59/64/59 63/70/63 55/60/55
f 55/60/55 63/70/63 11/15/11
f 9/13/9 53/58/53 55/60/55
f 61/66/61 60/65/60 68/76/68
f 63/72/63 27/32/27 29/34/29
f 65/73/65 67/75/67 86/95/86
f 66/74/66 100/110/100 31/36/31
f 32/37/32 31/36/31 100/110/100
f 27/32/27 64/71/64 25/30/25
f 70/78/70 69/77/69 77/86/77
f 71/79/71 83/282/83 69/77/69
f 69/77/69 83/282/83 73/81/73
f 69/77/69 72/80/72 78/87/78
f 78/87/78 72/80/72 56/61/56
f 75/84/75 74/83/74 90/99/90
f 168/187/168 80/89/80 50/55/50
f 71/79/71 81/100/81 83/282/83
f 92/143/92 82/91/82 81/90/81
f 111/123/111 94/104/94 98/108/98
f 98/108/98 94/104/94 96/106/96
f 97/107/97 95/105/95 33/38/33
f 96/106/96 97/107/97 100/110/100
f 100/110/100 97/107/97 32/37/32
f 111/123/111 101/111/101 94/104/94
f 103/113/103 104/114/104 20/116/20
f 94/104/94 103/113/103 95/105/95
f 44/49/44 95/105/95 105/115/105
f 45/50/45 44/49/44 105/115/105
f 41/46/41 45/50/45 105/115/105
f 105/115/105 14/18/14 41/46/41
f 107/118/107 21/25/21 20/24/20
f 106/117/106 20/116/20 19/28/19
f 112/124/112 118/130/118 110/122/110
f 117/129/117 119/131/119 104/114/104
f 104/114/104 102/112/102 117/129/117
f 118/130/118 122/134/122 116/128/116
f 102/112/102 110/122/110 118/130/118
f 124/136/124 115/127/115 99/109/99
f 65/73/65 124/136/124 123/135/123
f 100/110/100 66/74/66 123/135/123
f 125/137/125 138/153/138 126/138/126
f 130/142/130 142/157/142 125/137/125
f 88/97/88 135/150/135 89/98/89
f 128/140/128 137/152/137 115/127/115
f 114/126/114 120/132/120 113/125/113
f 128/140/128 115/127/115 124/136/124
f 142/157/142 138/153/138 125/137/125
f 137/152/137 139/154/139 136/151/136
f 133/146/133 140/155/140 131/144/131
f 140/155/140 143/158/143 141/156/141
f 142/157/142 130/142/130 131/144/131
f 238/267/238 144/159/144 143/158/143
f 139/154/139 141/156/141 143/158/143
f 143/158/143 136/151/136 139/154/139
f 147/162/147 146/161/146 152/168/152
f 146/161/146 145/160/145 180/201/180
f 7/8/7 23/281/23 145/160/145
f 151/166/151 54/59/54 149/164/149
f 4/5/4 149/164/149 10/14/10
f 150/167/150 152/168/152 155/172/155
f 190/211/190 156/173/156 158/175/158
f 158/175/158 157/174/157 154/171/154
f 157/174/157 155/172/155 154/171/154
f 159/181/159 151/166/151 155/177/155
f 170/192/170 163/182/163 159/181/159
f 49/54/49 162/180/162 50/55/50
f 176/283/176 225/249/225 166/185/166
f 161/179/161 168/187/168 50/55/50
f 167/186/167 176/283/176 166/185/166
f 156/173/156 159/176/159 157/174/157
f 176/197/176 175/196/175 225/284/225
f 192/213/192 173/194/173 177/198/177
f 145/160/145 23/281/23 22/26/22
f 191/212/191 182/203/182 181/202/181
f 153/170/153 152/168/152 146/161/146
f 184/205/184 183/204/183 108/120/108
f 185/206/185 184/205/184 230/257/230
f 179/200/179 178/199/178 183/204/183
f 188/209/188 191/212/191 187/208/187
f 191/212/191 190/211/190 182/203/182
f 190/211/190 171/191/171 156/173/156
f 190/211/190 158/175/158 182/203/182
f 245/279/245 173/194/173 194/215/194
f 194/215/194 173/194/173 192/213/192
f 197/218/197 194/215/194 195/216/195
f 189/210/189 193/214/193 171/191/171
f 185/206/185 230/257/230 196/217/196
f 198/219/198 187/208/187 185/206/185
f 88/97/88 93/103/93 135/150/135
f 199/220/199 135/150/135 93/103/93
f 214/285/214 202/223/202 201/222/201
f 210/233/210 202/286/202 214/237/214
f 243/274/243 199/220/199 202/223/202
f 243/287/243 210/233/210 208/230/208
f 243/287/243 202/286/202 210/233/210
f 173/194/173 245/279/245 207/228/207
f 209/231/209 210/233/210 211/234/211
f 204/288/204 214/237/214 217/289/217
f 214/237/214 204/288/204 213/236/213
f 212/235/212 211/234/211 219/243/219
f 217/241/217 213/290/213 205/226/205
f 214/285/214 201/222/201 217/240/217
f 219/243/219 213/236/213 217/240/217
f 211/234/211 213/236/213 219/243/219
f 215/238/215 93/103/93 90/99/90
f 201/222/201 93/103/93 216/239/216
f 212/235/212 219/243/219 218/242/218
f 90/99/90 74/83/74 221/245/221
f 224/248/224 221/245/221 74/83/74
f 74/83/74 220/244/220 224/248/224
f 215/238/215 218/242/218 216/239/216
f 212/235/212 218/242/218 223/247/223
f 225/249/225 222/246/222 224/248/224
f 166/185/166 224/248/224 220/244/220
f 206/227/206 174/195/174 207/228/207
f 172/193/172 174/195/174 175/196/175
f 222/246/222 225/249/225 223/247/223
f 226/256/226 119/131/119 116/128/116
f 108/120/108 104/119/104 119/253/119
f 122/134/122 226/256/226 116/128/116
f 229/260/229 230/257/230 227/252/227
f 226/251/226 229/260/229 227/252/227
f 228/254/228 231/265/231 229/255/229
f 197/218/197 196/217/196 234/262/234
f 234/262/234 230/257/230 232/259/232
f 238/267/238 140/155/140 237/266/237
f 238/267/238 143/158/143 140/155/140
f 241/271/241 236/264/236 237/266/237
f 228/254/228 121/133/121 144/159/144
f 200/221/200 134/149/134 135/150/135
f 236/275/236 241/278/241 245/279/245
f 235/263/235 236/275/236 245/279/245
f 208/229/208 242/276/242 243/291/243
f 208/229/208 207/228/207 244/277/244
f 197/218/197 235/263/235 194/215/194
f 246/292/246 247/293/247 248/294/248
f 247/293/247 249/295/249 248/294/248
f 246/292/246 250/296/250 247/293/247
f 249/295/249 247/293/247 251/297/251
f 250/296/250 252/298/252 247/293/247
f 250/299/250 246/300/246 248/301/248
f 252/298/252 251/297/251 247/293/247
f 204/225/204 249/302/249 251/303/251
f 248/301/248 249/302/249 204/225/204
f 252/304/252 248/301/248 203/224/203
f 204/225/204 203/224/203 248/301/248
f 203/224/203 251/305/251 252/304/252
f 203/224/203 205/226/205 251/305/251
f 213/290/213 204/306/204 251/305/251
f 205/226/205 213/290/213 251/305/251
f 250/299/250 248/301/248 252/304/252
